<svg xmlns="http://www.w3.org/2000/svg" viewBox="0 0 42.29 36.01"><defs><style>.cls-1{fill:#293f96;}</style></defs><title>Asset 6</title><g id="Layer_2" data-name="Layer 2"><g id="Layer_1-2" data-name="Layer 1"><path class="cls-1" d="M37.9,35.75H4.4A4.14,4.14,0,0,1,.26,31.61v-23A4.13,4.13,0,0,1,4.4,4.51H37.9A4.14,4.14,0,0,1,42,8.64v23A4.14,4.14,0,0,1,37.9,35.75ZM5,34.6H37.33A3.56,3.56,0,0,0,40.89,31V9.21a3.56,3.56,0,0,0-3.56-3.56H5A3.57,3.57,0,0,0,1.4,9.21V31A3.56,3.56,0,0,0,5,34.6Z"/><path class="cls-1" d="M37.9,36H4.4A4.41,4.41,0,0,1,0,31.61v-23A4.4,4.4,0,0,1,4.4,4.25H37.9a4.4,4.4,0,0,1,4.39,4.39v23A4.4,4.4,0,0,1,37.9,36ZM4.4,4.77A3.88,3.88,0,0,0,.52,8.64v23A3.88,3.88,0,0,0,4.4,35.49H37.9a3.88,3.88,0,0,0,3.88-3.88v-23A3.88,3.88,0,0,0,37.9,4.77ZM37.33,34.86H5A3.83,3.83,0,0,1,1.14,31V9.21A3.83,3.83,0,0,1,5,5.39H37.33a3.83,3.83,0,0,1,3.82,3.82V31A3.82,3.82,0,0,1,37.33,34.86ZM5,5.91a3.31,3.31,0,0,0-3.31,3.3V31A3.31,3.31,0,0,0,5,34.34H37.33a3.3,3.3,0,0,0,3.3-3.3V9.21a3.3,3.3,0,0,0-3.3-3.3Z"/><path class="cls-1" d="M21.13,31.59a11,11,0,1,1,10.1-10.1A11,11,0,0,1,21.13,31.59Zm.12-20.83a9.89,9.89,0,1,0,8.82,8.82A9.9,9.9,0,0,0,21.25,10.76Z"/><path class="cls-1" d="M20.25,31.88a11.33,11.33,0,1,1,.9,0l0-.25,0,.25C20.85,31.87,20.55,31.88,20.25,31.88Zm0-22c-.29,0-.57,0-.86,0a10.77,10.77,0,0,0,1.75,21.47h0a10.77,10.77,0,0,0-.89-21.5Zm0,20.91a8.77,8.77,0,0,1-1-.06,10,10,0,1,1,1,.06Zm0-19.77a9.62,9.62,0,1,0,1,0h0C20.89,11,20.57,11,20.24,11Z"/><path class="cls-1" d="M20.82,28.46a8,8,0,1,1,7.29-7.28A8,8,0,0,1,20.82,28.46Zm.08-15a7.13,7.13,0,1,0,6.37,6.36A7.14,7.14,0,0,0,20.9,13.44Z"/><path class="cls-1" d="M20.18,28.75a8.27,8.27,0,1,1,.66,0h0Q20.51,28.75,20.18,28.75Zm0-15.92c-.2,0-.41,0-.61,0A7.7,7.7,0,0,0,20.8,28.21h0a7.7,7.7,0,0,0-.64-15.38Zm0,15.09q-.37,0-.75,0a7.39,7.39,0,0,1,1.51-14.71h0a7.39,7.39,0,0,1-.76,14.74Zm0-14.26a6.91,6.91,0,1,0,.7,0A5.48,5.48,0,0,0,20.18,13.66Z"/><path class="cls-1" d="M12.75,3.64H4.36a.58.58,0,0,1-.57-.57.57.57,0,0,1,.57-.57h8.39a.57.57,0,0,1,.58.57A.58.58,0,0,1,12.75,3.64Z"/><path class="cls-1" d="M12.75,3.9H4.36a.83.83,0,0,1,0-1.66h8.39a.83.83,0,1,1,0,1.66ZM4.36,2.76a.31.31,0,1,0,0,.62h8.39a.31.31,0,1,0,0-.62Z"/><path class="cls-1" d="M11.37,1.4H5.53c-.22,0-.4-.25-.4-.57s.18-.57.4-.57h5.84c.22,0,.4.26.4.57S11.59,1.4,11.37,1.4Z"/><path class="cls-1" d="M11.37,1.66H5.53A.75.75,0,0,1,4.87.83.75.75,0,0,1,5.53,0h5.84A.75.75,0,0,1,12,.83.75.75,0,0,1,11.37,1.66ZM5.53.52s-.14.12-.14.31.1.31.14.31h5.84s.14-.11.14-.31-.1-.31-.14-.31Z"/><path class="cls-1" d="M37.3,12.36H32.58a1.79,1.79,0,0,1-1.79-1.79V9.42a1.79,1.79,0,0,1,1.79-1.79H37.3a1.79,1.79,0,0,1,1.79,1.79v1.15A1.79,1.79,0,0,1,37.3,12.36Zm-4.15-1.15h3.58A1.22,1.22,0,0,0,38,10h0a1.22,1.22,0,0,0-1.22-1.21H33.15A1.21,1.21,0,0,0,31.94,10h0A1.21,1.21,0,0,0,33.15,11.21Z"/><path class="cls-1" d="M37.3,12.61H32.58a2,2,0,0,1-2-2V9.42a2.05,2.05,0,0,1,2-2H37.3a2.05,2.05,0,0,1,2.05,2.05v1.15A2,2,0,0,1,37.3,12.61ZM32.58,7.89a1.54,1.54,0,0,0-1.53,1.53v1.15a1.54,1.54,0,0,0,1.53,1.53H37.3a1.53,1.53,0,0,0,1.53-1.53V9.42A1.53,1.53,0,0,0,37.3,7.89Zm4.15,3.58H33.15a1.48,1.48,0,0,1,0-3h3.58a1.48,1.48,0,1,1,0,3ZM33.15,9a1,1,0,0,0,0,1.91h3.58a1,1,0,1,0,0-1.91Z"/></g></g></svg>