<svg xmlns="http://www.w3.org/2000/svg" viewBox="0 0 39.43 37"><defs><style>.cls-1{fill:#293f96;}</style></defs><title>attachment</title><g id="Layer_2" data-name="Layer 2"><g id="Layer_1-2" data-name="Layer 1"><path class="cls-1" d="M35.15,19.69l.88-.87a10.64,10.64,0,0,0,0-15,11,11,0,0,0-14.93-.6.8.8,0,0,0-.19.13l-.45.45s0,0,0,0l-.61.61L19,3.52a11,11,0,0,0-15.56,0h0a10.66,10.66,0,0,0,0,15.06l1.13,1.11L4.21,20a3.12,3.12,0,0,0-.9,2.53,3.17,3.17,0,0,0,1.38,2.33,3.28,3.28,0,0,0,1.41.5,3.2,3.2,0,0,0-.42,4A3.15,3.15,0,0,0,8,30.75a3.75,3.75,0,0,0,.82,0,2.9,2.9,0,0,0-.05.58,3.14,3.14,0,0,0,5,2.48,3,3,0,0,0,.76,1.89,3.08,3.08,0,0,0,2.26,1h.08a3.13,3.13,0,0,0,2.22-.91l.82-.82a3.31,3.31,0,0,0,2,.68,3,3,0,0,0,1.7-.52,3.16,3.16,0,0,0,1.38-2.29,3.22,3.22,0,0,0,4,.42,3.17,3.17,0,0,0,1.38-2.33,3,3,0,0,0,0-.8,5.54,5.54,0,0,0,.59,0,3,3,0,0,0,2.26-1,3.2,3.2,0,0,0,.24-3.88,3.09,3.09,0,0,0,2.1-1,3.21,3.21,0,0,0-.22-4.42Zm0-15.09a9.49,9.49,0,0,1,0,13.4l-.87.87L24.8,9.33l.67-.68a.56.56,0,0,0,0-.82.59.59,0,0,0-.83,0l-5.22,5.22a2.32,2.32,0,0,1-3.58-.36,2.41,2.41,0,0,1,.37-3L21.3,4.6A9.83,9.83,0,0,1,35.19,4.6ZM5.35,23.89a1.94,1.94,0,0,1-.87-1.45A1.91,1.91,0,0,1,5,20.85l.33-.32,2.78,2.8-.27.26A2.06,2.06,0,0,1,5.35,23.89ZM9.7,29a2.06,2.06,0,0,1-1.59.56,2,2,0,0,1-1.45-.87A2,2,0,0,1,7,26.16L8.7,24.43l0,0L9,24.15l2.79,2.79Zm5,2.26-1.26,1.25a2.08,2.08,0,0,1-2.81.18,2,2,0,0,1-.08-2.87l2.07-2.08,2.78,2.8-.68.68S14.69,31.26,14.68,31.28Zm2.09,4.26a2,2,0,0,1-1.41-.65,2.07,2.07,0,0,1,.16-2.79l.7-.7L19,34.18l-.79.78A1.91,1.91,0,0,1,16.77,35.54ZM34.59,23.43a1.93,1.93,0,0,1-1.41.67,2,2,0,0,1-1.45-.58s0,0,0,0l-7.67-7.67a.6.6,0,0,0-.83,0,.58.58,0,0,0,0,.84l7.68,7.67h0l1.18,1.19a2.08,2.08,0,0,1,.17,2.81,1.9,1.9,0,0,1-1.41.65,2,2,0,0,1-1.44-.56v0h0l-9-9a.59.59,0,0,0-.83,0,.6.6,0,0,0,0,.84l9,9h0a2,2,0,0,1,.56,1.59,2,2,0,0,1-.88,1.45A2,2,0,0,1,25.71,32l-1.63-1.62a.22.22,0,0,0-.06-.07h0l-7.21-7.2a.57.57,0,0,0-.83,0,.6.6,0,0,0-.18.42.57.57,0,0,0,.18.4l7.21,7.22h0a2,2,0,0,1,.57,1.59,2,2,0,0,1-.88,1.45,2.06,2.06,0,0,1-2.54-.32L4.23,17.74a9.48,9.48,0,0,1,0-13.39h0a9.83,9.83,0,0,1,13.9,0l.87.88L15.38,8.85a3.5,3.5,0,0,0,2.07,6,1.83,1.83,0,0,0,.33,0,3.52,3.52,0,0,0,2.48-1L24,10.17,34.42,20.62A2.07,2.07,0,0,1,34.59,23.43Z"/><path class="cls-1" d="M16.83,37h-.08a3.43,3.43,0,0,1-2.48-1.12,3.33,3.33,0,0,1-.78-1.61,3.52,3.52,0,0,1-3.86-.47,3.46,3.46,0,0,1-1.15-2.48,2.35,2.35,0,0,1,0-.27H8a3.44,3.44,0,0,1-2.54-1.51,3.5,3.5,0,0,1,.11-4,3.73,3.73,0,0,1-1-.46A3.45,3.45,0,0,1,4,19.8l.11-.11-.92-.91a11,11,0,0,1,0-15.47l.1-.09a11.3,11.3,0,0,1,15.89.09l.66.66.32-.31V3.49h.17l.38-.38a1,1,0,0,1,.22-.16,11.36,11.36,0,0,1,15.3.63,10.94,10.94,0,0,1,0,15.46l-.67.67a3.48,3.48,0,0,1,.12,4.71,3.31,3.31,0,0,1-1.84,1.07,3.46,3.46,0,0,1-.5,3.84,3.34,3.34,0,0,1-2.46,1.15h-.27a4.34,4.34,0,0,1,0,.51,3.52,3.52,0,0,1-1.52,2.54,3.48,3.48,0,0,1-4-.12,3.4,3.4,0,0,1-5.21,2l-.65.65A3.45,3.45,0,0,1,16.83,37ZM14,33.26l0,.52a2.72,2.72,0,0,0,.68,1.7,2.82,2.82,0,0,0,2.05.94h.08a2.88,2.88,0,0,0,2-.83l1-1,.2.15a2.88,2.88,0,0,0,3.33.15,2.8,2.8,0,0,0,1.25-2.07l.06-.6.44.42a2.9,2.9,0,0,0,3.62.38A2.84,2.84,0,0,0,30,30.91a2.47,2.47,0,0,0,0-.72l-.06-.38.38,0a5,5,0,0,0,.56,0,2.7,2.7,0,0,0,2-.95,2.89,2.89,0,0,0,.22-3.52L32.85,25l.5,0a2.8,2.8,0,0,0,1.9-.94A2.91,2.91,0,0,0,35,20l-.29-.33,1.07-1.07A10.36,10.36,0,0,0,35.82,4a10.77,10.77,0,0,0-14.53-.58l-.06,0a.26.26,0,0,0-.11.08L19.84,4.8,18.77,3.72a10.73,10.73,0,0,0-15.15,0l-.1.09a10.39,10.39,0,0,0,.09,14.56l1.33,1.32-.52.53a2.86,2.86,0,0,0,.44,4.4,2.91,2.91,0,0,0,1.27.46l.6.06-.42.44a2.91,2.91,0,0,0-.39,3.63A2.88,2.88,0,0,0,8,30.46a3.73,3.73,0,0,0,.76,0l.4-.05-.07.4a2.62,2.62,0,0,0,0,.52A2.87,2.87,0,0,0,10,33.37a3,3,0,0,0,3.54.18Zm2.85,2.57h-.08a2.28,2.28,0,0,1-1.62-.74,2.35,2.35,0,0,1,.17-3.2l.91-.9,3.21,3.19-1,1A2.22,2.22,0,0,1,16.84,35.83Zm-.62-4-.5.5a1.79,1.79,0,0,0-.14,2.39,1.66,1.66,0,0,0,1.2.54h0a1.65,1.65,0,0,0,1.24-.5l.58-.57Zm5.62,2.95a2.48,2.48,0,0,1-1.71-.71L4,17.94A9.77,9.77,0,0,1,4,4.15l.1-.09a10.12,10.12,0,0,1,14.23.09l1.07,1.08L15.58,9.05a3.29,3.29,0,0,0-.48,4.14,3.26,3.26,0,0,0,2.37,1.41h.31a3.18,3.18,0,0,0,2.27-.94L24,9.76,34.63,20.41a2.38,2.38,0,0,1,.18,3.22,2.22,2.22,0,0,1-1.62.76h0a2.37,2.37,0,0,1-1.67-.66L23.84,16a.3.3,0,0,0-.41,0,.29.29,0,0,0-.09.21.3.3,0,0,0,.08.21l8.86,8.86a2.37,2.37,0,0,1,.19,3.22,2.2,2.2,0,0,1-1.63.74,2.25,2.25,0,0,1-1.65-.64l-9-9a.29.29,0,0,0-.42,0,.31.31,0,0,0,0,.42l9,9a2.31,2.31,0,0,1,.64,1.83,2.23,2.23,0,0,1-1,1.66,2.35,2.35,0,0,1-2.92-.35l-8.9-8.89a.28.28,0,0,0-.41,0,.31.31,0,0,0-.09.22.26.26,0,0,0,.08.19l7.22,7.22a2.27,2.27,0,0,1-.35,3.49A2.17,2.17,0,0,1,21.84,34.76ZM4.35,4.65a9.18,9.18,0,0,0,.09,12.88L20.55,33.64a1.78,1.78,0,0,0,2.17.28,1.7,1.7,0,0,0,.75-1.24,1.74,1.74,0,0,0-.43-1.3L23,31.33l-7.21-7.22a.86.86,0,0,1,0-1.24.88.88,0,0,1,1.24,0l7.22,7.21a.19.19,0,0,1,.07.08l1.61,1.6a1.79,1.79,0,0,0,2.17.28,1.63,1.63,0,0,0,.74-1.24,1.67,1.67,0,0,0-.42-1.3l-.06-.05-9-9a.89.89,0,0,1,0-1.25.88.88,0,0,1,1.24,0l9.06,9.06a1.67,1.67,0,0,0,1.14.39A1.61,1.61,0,0,0,32,28.14a1.77,1.77,0,0,0-.17-2.4l-1.18-1.19L23,16.88a.9.9,0,0,1-.26-.63.89.89,0,0,1,1.5-.63l7.59,7.59H32v.18a1.73,1.73,0,0,0,1.16.41,1.6,1.6,0,0,0,1.19-.56h0a1.78,1.78,0,0,0-.17-2.41L24,10.59l-3.49,3.49a3.79,3.79,0,0,1-2.69,1.12,2.42,2.42,0,0,1-.38,0,3.81,3.81,0,0,1-2.78-1.66,3.87,3.87,0,0,1,.55-4.88L18.6,5.23l-.66-.67a9.52,9.52,0,0,0-13.49,0Zm7.53,28.82a2.21,2.21,0,0,1-1.47-.54,2.27,2.27,0,0,1-.09-3.29l2.28-2.29,3.2,3.21-2.17,2.18A2.52,2.52,0,0,1,11.88,33.47Zm.72-5.29-1.86,1.87a1.71,1.71,0,0,0-.5,1.24,1.66,1.66,0,0,0,.56,1.2,1.79,1.79,0,0,0,2.41-.16L15,30.56Zm-4.31,1.7H8.08a2.23,2.23,0,0,1-1.66-1A2.32,2.32,0,0,1,6.78,26L9,23.74l3.19,3.2L9.9,29.23A2.32,2.32,0,0,1,8.29,29.88ZM9,24.57H9l-.07.07L7.19,26.36a1.75,1.75,0,0,0-.29,2.18,1.69,1.69,0,0,0,1.24.75,1.74,1.74,0,0,0,1.35-.48l1.86-1.87L9,24.56ZM6.4,24.49a2.23,2.23,0,0,1-1.22-.36h0a2.29,2.29,0,0,1-1-1.67,2.25,2.25,0,0,1,.65-1.82l.54-.52,3.2,3.21-.48.47A2.44,2.44,0,0,1,6.4,24.49Zm-.89-.85a1.77,1.77,0,0,0,2.17-.26l.05-.06L5.36,20.94l-.11.12a1.68,1.68,0,0,0,.26,2.58Zm28.81-4.35-9.93-10,.88-.88a.27.27,0,0,0,.09-.2A.29.29,0,0,0,25.27,8a.31.31,0,0,0-.42,0l-5.22,5.22a2.62,2.62,0,0,1-4-.41A2.7,2.7,0,0,1,16,9.47l5.08-5.08a10.14,10.14,0,0,1,14.31,0h0a9.79,9.79,0,0,1,0,13.82Zm-9.11-10,9.11,9.13.66-.67a9.2,9.2,0,0,0,0-13,9.55,9.55,0,0,0-13.47,0L16.42,9.89a2.11,2.11,0,0,0-.34,2.63,2,2,0,0,0,1.5.91,2,2,0,0,0,1.63-.58l5.23-5.23a.88.88,0,0,1,1.24,0,.87.87,0,0,1,.26.65.8.8,0,0,1-.27.6Z"/><path class="cls-1" d="M15.24,5.63a.58.58,0,0,0-.83-.82.59.59,0,0,0,0,.82A.59.59,0,0,0,15.24,5.63Z"/><path class="cls-1" d="M14.83,6.09a.87.87,0,1,1,.63-1.48.85.85,0,0,1,0,1.23A.9.9,0,0,1,14.83,6.09Zm0-1.17a.25.25,0,0,0-.2.09.29.29,0,0,0-.09.21.28.28,0,0,0,.08.2.31.31,0,0,0,.42,0h0a.28.28,0,0,0,.09-.2A.27.27,0,0,0,15,5,.28.28,0,0,0,14.83,4.92Z"/><path class="cls-1" d="M34.75,15.08a.6.6,0,0,0,0-.84.59.59,0,0,0-.84.84A.6.6,0,0,0,34.75,15.08Z"/><path class="cls-1" d="M34.33,15.54a.88.88,0,0,1-.62-.25.88.88,0,1,1,1.25,0h0A.86.86,0,0,1,34.33,15.54Zm0-1.18a.31.31,0,0,0-.22.09.3.3,0,0,0,0,.42.3.3,0,0,0,.43,0,.31.31,0,0,0,0-.43A.32.32,0,0,0,34.34,14.36Z"/></g></g></svg>