<svg id="Layer_1" data-name="Layer 1" xmlns="http://www.w3.org/2000/svg" viewBox="0 0 48 48"><defs><style>.cls-1{fill:#293f96;}</style></defs><path class="cls-1" d="M8,35.48H6.38A2.19,2.19,0,0,1,4.2,33.3V7.43A2.19,2.19,0,0,1,6.38,5.24H33a2.19,2.19,0,0,1,2.18,2.19v6.14a.66.66,0,0,0,1.32,0V7.43A3.5,3.5,0,0,0,33,3.93H6.38a3.5,3.5,0,0,0-3.49,3.5V33.3a3.5,3.5,0,0,0,3.49,3.5H8a.66.66,0,0,0,0-1.32Z"/><polygon class="cls-1" points="13.9 8 13.9 12.14 16.67 12.14 16.67 11.29 14.96 11.29 14.96 8 13.9 8"/><rect class="cls-1" x="17.39" y="8" width="1.05" height="4.15"/><polygon class="cls-1" points="21.07 11.11 20.27 8 19.08 8 20.4 12.14 21.72 12.14 23.05 8 21.89 8 21.09 11.11 21.07 11.11"/><polygon class="cls-1" points="26.52 8.85 26.52 8 23.68 8 23.68 12.14 26.52 12.14 26.52 11.29 24.73 11.29 24.73 10.45 26.41 10.45 26.41 9.67 24.73 9.67 24.73 8.85 26.52 8.85"/><path class="cls-1" d="M11.14,8.48a.75.75,0,1,0,.75-.75A.75.75,0,0,0,11.14,8.48Z"/><path class="cls-1" d="M17.25,29.63a3.12,3.12,0,0,0-3,1.15,3.71,3.71,0,0,0-1-.83,3,3,0,0,0-2.07-.36A3.42,3.42,0,0,0,8.67,33.2c0,2,1.51,2.89,2.63,3.55l.53.33a5.25,5.25,0,0,1,1.76,1.78.66.66,0,0,0,.63.47h0a.65.65,0,0,0,.62-.48,6,6,0,0,1,1.77-1.8c.19-.14.41-.27.64-.42,1.06-.65,2.51-1.55,2.5-3.45A3.34,3.34,0,0,0,17.25,29.63Zm-.67,5.89c-.24.14-.49.29-.71.45a10,10,0,0,0-1.64,1.49A8,8,0,0,0,12.55,36L12,35.63c-1.21-.73-2-1.29-2-2.42a2.17,2.17,0,0,1,1.48-2.33l.31,0a2.11,2.11,0,0,1,1.84,1.46.67.67,0,0,0,.61.4h0a.67.67,0,0,0,.6-.4A2,2,0,0,1,17,30.92c.7.14,1.45.81,1.46,2.27C18.46,34.27,17.75,34.79,16.58,35.52Z"/><path class="cls-1" d="M28.28,34.44a2.4,2.4,0,0,0-2.23.73,2.36,2.36,0,0,0-2.21-.76,2.63,2.63,0,0,0-2,2.78,3.17,3.17,0,0,0,2,2.73l.38.23a3.65,3.65,0,0,1,1.19,1.19.66.66,0,0,0,.63.47h0a.66.66,0,0,0,.62-.48,4.83,4.83,0,0,1,1.21-1.21l.46-.29a3.1,3.1,0,0,0,1.89-2.65A2.6,2.6,0,0,0,28.28,34.44Zm-.62,4.27c-.18.11-.36.22-.52.34a6.4,6.4,0,0,0-1.08,1,5.79,5.79,0,0,0-1.12-1l-.42-.26c-.84-.51-1.35-.86-1.35-1.59s.37-1.39.93-1.5l.18,0a1.35,1.35,0,0,1,1.16.94.68.68,0,0,0,.61.4h0a.66.66,0,0,0,.6-.4A1.25,1.25,0,0,1,28,35.73c.55.11.9.67.91,1.46S28.45,38.22,27.66,38.71Z"/><path class="cls-1" d="M39.62,27.3V22.38a2,2,0,0,0-2-2H36a4.56,4.56,0,0,0,.73-1.77,14.84,14.84,0,0,0,.16-1.51,1.78,1.78,0,0,0-.49-1.31,1.72,1.72,0,0,0-1.27-.54,1.76,1.76,0,0,0-1.73,1.45,3.75,3.75,0,0,1-1,2.24,5.82,5.82,0,0,1-.61.39,1.49,1.49,0,0,0-.89,1,2.42,2.42,0,0,1-.75,1.39,1.07,1.07,0,0,0-.78-.33h0l-1.52,0a1.1,1.1,0,0,0-.78.36,1.18,1.18,0,0,0-.29.78l.07,6.25A1.12,1.12,0,0,0,28,29.92h0l1.52,0a1.1,1.1,0,0,0,1-.73,6.13,6.13,0,0,1,1.41,0,8.48,8.48,0,0,0,1.35.11h4.32A2,2,0,0,0,39.62,27.3ZM28.23,28.6l-.07-5.87h1.06l.07,5.86Zm3.95-.71a7.18,7.18,0,0,0-1.59-.05l-.05-4.77a3.33,3.33,0,0,0,1.71-2.44s.17-.1.27-.16a8.05,8.05,0,0,0,.71-.45,4.74,4.74,0,0,0,1.49-3.09.44.44,0,0,1,.43-.37.43.43,0,0,1,.32.14.41.41,0,0,1,.12.33,12,12,0,0,1-.14,1.37,4.24,4.24,0,0,1-1.28,2.14.67.67,0,0,0-.21.61v2.08a2.23,2.23,0,0,1-1.38,2.06l-.38.16a.66.66,0,0,0-.36.86.67.67,0,0,0,.61.41.7.7,0,0,0,.25,0l.38-.16a3.54,3.54,0,0,0,2.19-3.28V21.7h2.35a.68.68,0,0,1,.48.21.67.67,0,0,1,.2.48V27.3a.68.68,0,0,1-.68.69H33.3A6.76,6.76,0,0,1,32.18,27.89Z"/><path class="cls-1" d="M42.44,30.64a1,1,0,1,0,1,1A1,1,0,0,0,42.44,30.64Z"/><path class="cls-1" d="M41.75,41.46a.69.69,0,1,0,.69.69A.69.69,0,0,0,41.75,41.46Z"/><path class="cls-1" d="M37.4,33.75a.66.66,0,0,0-.66.66v1.23a.66.66,0,0,0,1.31,0V34.41A.66.66,0,0,0,37.4,33.75Z"/><path class="cls-1" d="M37.4,38.4a.65.65,0,0,0-.66.66v1.23a.66.66,0,0,0,1.31,0V39.06A.65.65,0,0,0,37.4,38.4Z"/><path class="cls-1" d="M35.69,36.69H34.46a.66.66,0,1,0,0,1.32h1.23a.66.66,0,0,0,0-1.32Z"/><path class="cls-1" d="M40.34,36.69H39.11a.66.66,0,0,0,0,1.32h1.23a.66.66,0,0,0,0-1.32Z"/><path class="cls-1" d="M19.24,18.49a.66.66,0,0,0-.66.66v1.22a.66.66,0,0,0,1.32,0V19.15A.66.66,0,0,0,19.24,18.49Z"/><path class="cls-1" d="M19.24,23.14a.66.66,0,0,0-.66.66V25a.66.66,0,0,0,1.32,0V23.8A.66.66,0,0,0,19.24,23.14Z"/><path class="cls-1" d="M16.3,22.74h1.23a.66.66,0,1,0,0-1.31H16.3a.66.66,0,1,0,0,1.31Z"/><path class="cls-1" d="M22.84,22.08a.66.66,0,0,0-.66-.65H21a.66.66,0,1,0,0,1.31h1.23A.66.66,0,0,0,22.84,22.08Z"/></svg>