<svg id="Layer_1" data-name="Layer 1" xmlns="http://www.w3.org/2000/svg" viewBox="0 0 48 48"><defs><style>.cls-1,.cls-2{fill:#293f96;}.cls-2{stroke:#293f96;stroke-miterlimit:10;stroke-width:0.5px;}</style></defs><path class="cls-1" d="M23.34,32H7.89a1.17,1.17,0,0,1-1.17-1.17V3.38A1.17,1.17,0,0,1,7.89,2.21H40.11a1.17,1.17,0,0,1,1.17,1.17v23a.68.68,0,1,0,1.35,0v-23A2.53,2.53,0,0,0,40.11.85H7.89A2.53,2.53,0,0,0,5.37,3.38V30.82a2.53,2.53,0,0,0,2.52,2.53H23.34a.68.68,0,1,0,0-1.36Z"/><path class="cls-1" d="M38.17,14.92V5.39a.69.69,0,0,0-.68-.68H10.36a.68.68,0,0,0-.68.68v9.53a.67.67,0,0,0,.68.68H37.49A.68.68,0,0,0,38.17,14.92Zm-1.36-.67H11V6.07H36.81Z"/><path class="cls-1" d="M27.77,19.44a.68.68,0,1,0,0-1.35h-3a.68.68,0,0,0,0,1.35Z"/><path class="cls-1" d="M10.32,19.44H22.61a.68.68,0,1,0,0-1.35H10.32a.68.68,0,1,0,0,1.35Z"/><path class="cls-1" d="M30.84,22a.68.68,0,1,0,0,1.35h1.09a.68.68,0,0,0,0-1.35Z"/><path class="cls-1" d="M29.08,22.65A.67.67,0,0,0,28.4,22H20.9a.68.68,0,1,0,0,1.35h7.5A.67.67,0,0,0,29.08,22.65Z"/><path class="cls-1" d="M10.32,23.33h8.41a.68.68,0,0,0,0-1.35H10.32a.68.68,0,1,0,0,1.35Z"/><path class="cls-1" d="M31.16,26.81a.68.68,0,0,0-.68-.67H25a.68.68,0,0,0,0,1.35h5.52A.68.68,0,0,0,31.16,26.81Z"/><path class="cls-1" d="M10.32,27.49H22.79a.68.68,0,1,0,0-1.35H10.32a.68.68,0,1,0,0,1.35Z"/><path class="cls-2" d="M34.15,35.44s0,0,0,0a5.28,5.28,0,0,0,.94.1,3.85,3.85,0,0,0,2-.56c1.23-.78,2.07-2.29,2.5-4.53a19.66,19.66,0,0,0,.31-4.5.46.46,0,0,0-.44-.42c-.17,0-4.49-.28-7.26,1.24A4,4,0,0,0,30,31.29h0c-.8.56-12.26,8.64-11.69,15.42a.45.45,0,0,0,.42.42,4,4,0,0,0,.49,0C25.9,47.15,33.6,36.22,34.15,35.44Zm-1.46-7.9c2.07-1.13,5.24-1.17,6.36-1.14a18.33,18.33,0,0,1-.3,3.84c-.38,2-1.08,3.29-2.09,3.92a3.17,3.17,0,0,1-2.37.35,6.49,6.49,0,0,0-2-2.51c.19-.75,1.11-3.05,4.85-3.72a.45.45,0,0,0,.37-.53.47.47,0,0,0-.53-.39c-3.81.7-5.08,2.94-5.48,4.08a2.82,2.82,0,0,0-.59-.28A3.1,3.1,0,0,1,32.69,27.54ZM30.56,32h0a4,4,0,0,1,1.67,1.17,3.8,3.8,0,0,1,1.17,1.68l0,0s-.49.71-1.29,1.72a1.72,1.72,0,0,1-.09-.19,9.48,9.48,0,0,0-1.33-1.67A8.46,8.46,0,0,0,29,33.42l-.19-.09C29.85,32.54,30.53,32.06,30.56,32ZM19.24,46.23h0c0-4.38,5.42-9.48,8.77-12.22.21,0,1,.34,2.07,1.39a4.59,4.59,0,0,1,1.4,2.06C28.71,40.82,23.6,46.23,19.24,46.23Z"/></svg>