<svg xmlns="http://www.w3.org/2000/svg" viewBox="0 0 39.19 41.43"><defs><style>.cls-1{fill:#293f96;}</style></defs><title>online-shoping</title><g id="Layer_2" data-name="Layer 2"><g id="Layer_1-2" data-name="Layer 1"><path class="cls-1" d="M22.35,31a.69.69,0,0,0-.68.69v2h-20V5.15h20V8.92a.69.69,0,1,0,1.37,0V3.8A3.46,3.46,0,0,0,19.59.35H3.8A3.46,3.46,0,0,0,.35,3.8V37.63A3.46,3.46,0,0,0,3.8,41.08H19.59A3.46,3.46,0,0,0,23,37.63v-6A.69.69,0,0,0,22.35,31ZM3.8,1.72H19.59a2.08,2.08,0,0,1,2.08,2.06h-20A2.08,2.08,0,0,1,3.8,1.72Zm15.79,38H3.8a2.08,2.08,0,0,1-2.08-2.08V35h20v2.63A2.08,2.08,0,0,1,19.59,39.71Z"/><path class="cls-1" d="M19.59,41.43H3.8A3.8,3.8,0,0,1,0,37.63V3.8A3.8,3.8,0,0,1,3.8,0H19.59a3.8,3.8,0,0,1,3.8,3.8V8.92a1,1,0,1,1-2.07,0V5.5H2.07V33.28H21.32V31.66a1,1,0,1,1,2.07,0v6A3.8,3.8,0,0,1,19.59,41.43ZM3.8.7A3.1,3.1,0,0,0,.7,3.8V37.63a3.1,3.1,0,0,0,3.1,3.1H19.59a3.1,3.1,0,0,0,3.1-3.1v-6a.34.34,0,1,0-.67,0V34H1.37V4.8H22V8.92a.34.34,0,1,0,.67,0V3.8A3.1,3.1,0,0,0,19.59.7ZM19.59,40.06H3.8a2.43,2.43,0,0,1-2.43-2.43v-3H22v3A2.43,2.43,0,0,1,19.59,40.06ZM2.07,35.35v2.28A1.74,1.74,0,0,0,3.8,39.36H19.59a1.74,1.74,0,0,0,1.73-1.73V35.35ZM22,4.13H1.37V3.77A2.43,2.43,0,0,1,3.8,1.37H19.59A2.43,2.43,0,0,1,22,3.77ZM2.11,3.43H21.28a1.74,1.74,0,0,0-1.69-1.36H3.8A1.74,1.74,0,0,0,2.11,3.43Z"/><path class="cls-1" d="M13.05,36.37H10.58a.69.69,0,0,0-.68.69.68.68,0,0,0,.68.68h2.47a.67.67,0,0,0,.68-.68A.68.68,0,0,0,13.05,36.37Z"/><path class="cls-1" d="M13.05,38.09H10.58a1,1,0,0,1,0-2.07h2.47a1,1,0,0,1,0,2.07Zm-2.47-1.37a.34.34,0,0,0,0,.67h2.47a.34.34,0,0,0,0-.67Z"/><path class="cls-1" d="M31.84,16.52H28.49l.16-4.82A.68.68,0,0,0,28,11l-6.86-.25a.69.69,0,0,0-.71.65l-.06,1.26-2.13-.25a.68.68,0,0,0-.75.54l-.74,3.58H15.29l-1.14-3.81A2.35,2.35,0,0,0,11.81,11H7.11a.69.69,0,0,0,0,1.37h4.7a1,1,0,0,1,1,.75l1,3.41H9.47a.69.69,0,0,0-.68.69.68.68,0,0,0,.68.68h4.8L15,20.3H12a.69.69,0,0,0-.68.69.68.68,0,0,0,.68.68h3.46l1,3.49H15.09a.69.69,0,0,0,0,1.37H28.84a.69.69,0,0,0,.65-.46l3-8.64a.68.68,0,0,0-.09-.62A.7.7,0,0,0,31.84,16.52ZM30,20.3H26.43l.32-2.41h4.13Zm-8.3,4.86-.46-3.49h3.59l-.46,3.49ZM21.1,20.3l-.32-2.41h4.58l-.31,2.41Zm.66-8.17,5.5.2-.14,4.19H23.63l.44-2.7a.67.67,0,0,0-.59-.79l-1.76-.21Zm-3.06,1.7,3.91.47-.37,2.22h-4.1Zm-3,4.06h3.7l.32,2.41H16.43Zm1.14,3.78H19.9l.46,3.49H17.88Zm11.51,3.49H25.79l.46-3.49h3.31Z"/><path class="cls-1" d="M28.84,26.88H15.09a1,1,0,0,1,0-2.07H16L15.15,22H12A1,1,0,0,1,12,20h2.58L14,18.24H9.47a1,1,0,0,1,0-2.07h3.92l-.89-3a.64.64,0,0,0-.69-.5H7.11a1,1,0,0,1,0-2.07h4.7a2.7,2.7,0,0,1,2.68,2l1.06,3.56h.9l.69-3.3a1,1,0,0,1,1.14-.82l1.75.21,0-.89a1,1,0,0,1,1.07-1l6.86.25a1,1,0,0,1,1,1.07l-.14,4.46h3a1,1,0,0,1,.84.44,1,1,0,0,1,.14.94l-3,8.64A1,1,0,0,1,28.84,26.88ZM15.09,25.51a.34.34,0,0,0,0,.67H28.84a.32.32,0,0,0,.31-.22l3-8.64a.35.35,0,0,0,0-.3.33.33,0,0,0-.27-.15H28.13l.17-5.18a.34.34,0,0,0-.32-.35l-6.86-.25a.34.34,0,0,0-.35.32l-.08,1.64-2.5-.3a.32.32,0,0,0-.36.26L17,16.87H15l-1.21-4.05a2,2,0,0,0-2-1.48H7.11a.34.34,0,0,0,0,.67h4.7a1.32,1.32,0,0,1,1.36,1l1.16,3.86H9.47a.34.34,0,0,0,0,.67h5.07l.93,3.11H12a.34.34,0,0,0,0,.67h3.72l1.25,4.19Zm13.51,0H25.39l.55-4.19h4.12Zm-2.41-.7H28.1l1-2.79H26.56Zm-1.47.7H21.43l-.55-4.19h4.39ZM22,24.81H24.1L24.47,22H21.68Zm-1.28.7H17.62l-1.25-4.19h3.84Zm-2.62-.7H20L19.59,22H17.31Zm12.15-4.16H26l.41-3.11h4.93ZM26.83,20h3l.59-1.71H27.05Zm-1.47.7H20.79l-.41-3.11h5.38ZM21.41,20h3.33L25,18.24H21.18Zm-1.29.7H16.17l-.94-3.11h4.48ZM16.69,20h2.63l-.23-1.71H16.18Zm10.77-3.08H23.22l.51-3.11a.33.33,0,0,0-.29-.38l-2.09-.25.07-1.36,6.2.23ZM24,16.17h2.74l.12-3.5-4.81-.17h0l1.43.17a1,1,0,0,1,.71.41,1,1,0,0,1,.19.79Zm-1.5.7H17.71l.71-3.42L23,14Zm-4-.7h3.37l.26-1.56L19,14.22Z"/><path class="cls-1" d="M4.56,11a.69.69,0,1,0,0,1.37h.36a.69.69,0,1,0,0-1.37Z"/><path class="cls-1" d="M4.92,12.71H4.56a1,1,0,1,1,0-2.07h.36a1,1,0,1,1,0,2.07Zm-.36-1.37a.34.34,0,1,0,0,.67h.36a.34.34,0,1,0,0-.67Z"/><path class="cls-1" d="M25.84,26.88a1.77,1.77,0,1,0,1.76,1.77A1.76,1.76,0,0,0,25.84,26.88Zm0,2.16a.4.4,0,1,1,.39-.39A.39.39,0,0,1,25.84,29Z"/><path class="cls-1" d="M25.84,30.76A2.12,2.12,0,1,1,28,28.65,2.11,2.11,0,0,1,25.84,30.76Zm0-3.53a1.42,1.42,0,1,0,1.41,1.42A1.42,1.42,0,0,0,25.84,27.23Zm0,2.16a.74.74,0,0,1-.74-.74.74.74,0,1,1,1.48,0A.74.74,0,0,1,25.84,29.39Zm0-.74,0,0a0,0,0,0,0,0,0Z"/><path class="cls-1" d="M21.81,28.65a1.77,1.77,0,1,0-1.76,1.76A1.76,1.76,0,0,0,21.81,28.65Zm-2.16,0a.4.4,0,1,1,.79,0,.4.4,0,0,1-.79,0Z"/><path class="cls-1" d="M20.05,30.76a2.12,2.12,0,1,1,2.11-2.11A2.12,2.12,0,0,1,20.05,30.76Zm0-3.53a1.42,1.42,0,1,0,1.41,1.42A1.43,1.43,0,0,0,20.05,27.23Zm0,2.16a.75.75,0,0,1-.75-.74.76.76,0,0,1,.75-.75.75.75,0,0,1,.74.75A.74.74,0,0,1,20.05,29.39Zm0-.79-.05,0a0,0,0,0,0,.05,0Z"/><path class="cls-1" d="M6.66,17.93h.45a.69.69,0,1,0,0-1.37H6.66a.69.69,0,1,0,0,1.37Z"/><path class="cls-1" d="M7.11,18.28H6.66a1,1,0,1,1,0-2.07h.45a1,1,0,1,1,0,2.07Zm-.45-1.37a.34.34,0,1,0,0,.67h.45a.34.34,0,1,0,0-.67Z"/><path class="cls-1" d="M28.45,3.13a1,1,0,1,0-1.05-1A1,1,0,0,0,28.45,3.13Z"/><path class="cls-1" d="M28.45,3.48a1.4,1.4,0,1,1,1.4-1.4A1.4,1.4,0,0,1,28.45,3.48Zm0-2.09a.7.7,0,1,0,.7.69A.69.69,0,0,0,28.45,1.39Z"/><path class="cls-1" d="M35,4.19a.68.68,0,0,0-.69.68V6.15a.69.69,0,0,0,.69.69.68.68,0,0,0,.68-.69V4.87A.67.67,0,0,0,35,4.19Z"/><path class="cls-1" d="M35,7.19a1,1,0,0,1-1-1V4.87a1,1,0,0,1,2.07,0V6.15A1,1,0,0,1,35,7.19Zm0-2.65a.34.34,0,0,0-.34.33V6.15a.34.34,0,1,0,.67,0V4.87A.33.33,0,0,0,35,4.54Z"/><path class="cls-1" d="M35,9a.68.68,0,0,0-.69.68V11a.69.69,0,0,0,.69.69.68.68,0,0,0,.68-.69V9.71A.67.67,0,0,0,35,9Z"/><path class="cls-1" d="M35,12a1,1,0,0,1-1-1V9.71a1,1,0,0,1,2.07,0V11A1,1,0,0,1,35,12Zm0-2.65a.34.34,0,0,0-.34.33V11a.34.34,0,0,0,.67,0V9.71A.33.33,0,0,0,35,9.38Z"/><path class="cls-1" d="M33.32,7.34H32a.68.68,0,0,0-.69.68.69.69,0,0,0,.69.69h1.28A.68.68,0,0,0,34,8,.67.67,0,0,0,33.32,7.34Z"/><path class="cls-1" d="M33.32,9.06H32A1,1,0,1,1,32,7h1.28a1,1,0,0,1,0,2.07ZM32,7.69a.34.34,0,0,0,0,.67h1.28a.34.34,0,0,0,0-.67Z"/><path class="cls-1" d="M38.16,7.34H36.88a.68.68,0,0,0-.69.68.69.69,0,0,0,.69.69h1.28A.68.68,0,0,0,38.84,8,.67.67,0,0,0,38.16,7.34Z"/><path class="cls-1" d="M38.16,9.06H36.88a1,1,0,1,1,0-2.07h1.28a1,1,0,0,1,0,2.07ZM36.88,7.69a.34.34,0,1,0,0,.67h1.28a.34.34,0,0,0,0-.67Z"/></g></g></svg>