<svg xmlns="http://www.w3.org/2000/svg" viewBox="0 0 39.23 39.23"><defs><style>.cls-1{fill:#293f96;}</style></defs><title>pen</title><g id="Layer_2" data-name="Layer 2"><g id="Layer_1-2" data-name="Layer 1"><path class="cls-1" d="M38.25,32.55H33.12a.58.58,0,0,0-.58.57v2H6.69V33.48l12.89-2.9a.6.6,0,0,0,.44-.44,26.22,26.22,0,0,1,5-9.47L28.83,19A.58.58,0,0,0,29,18l-7.82-7.81a.57.57,0,0,0-.52-.17.61.61,0,0,0-.42.34l-1.68,3.86A26.18,26.18,0,0,1,9.09,19.2a.61.61,0,0,0-.43.45l-2.9,12.9H4.13V6.68h2a.58.58,0,0,0,.59-.58V1A.59.59,0,0,0,6.1.39H1A.58.58,0,0,0,.39,1V6.1A.57.57,0,0,0,1,6.68H3V32.55H1a.58.58,0,0,0-.58.57v5.13a.58.58,0,0,0,.58.59H6.1a.59.59,0,0,0,.59-.59v-2H32.54v2a.58.58,0,0,0,.58.59h5.13a.58.58,0,0,0,.58-.59V33.12A.57.57,0,0,0,38.25,32.55ZM1.56,1.57h4v4h-4ZM21,11.65l6.61,6.62L24.75,19.5l-5-5ZM9.72,20.24A27.4,27.4,0,0,0,19,15.4l4.82,4.82A27.12,27.12,0,0,0,19,29.51L8.09,32l5.38-5.38a2.46,2.46,0,0,0,1.25.35,2.42,2.42,0,0,0,2.44-2.44,2.47,2.47,0,0,0-.71-1.71,2.45,2.45,0,0,0-3.45,0,2.44,2.44,0,0,0-.35,3L7.26,31.13Zm4.11,3.37a1.28,1.28,0,0,1,2.17.88,1.34,1.34,0,0,1-.38.92,1.27,1.27,0,0,1-1.79-1.8ZM5.52,37.67h-4v-4h4Zm32.15,0h-4v-4h4Z"/><path class="cls-1" d="M38.25,39.23H33.12a1,1,0,0,1-1-1V36.67H7.08v1.58a1,1,0,0,1-1,1H1a1,1,0,0,1-1-1V33.12a1,1,0,0,1,1-1H2.56V7.07H1a1,1,0,0,1-1-1V1A1,1,0,0,1,1,0H6.1a1,1,0,0,1,1,1V6.1a1,1,0,0,1-1,1H4.52V32.16h.93L8.27,19.57a1,1,0,0,1,.7-.74l.12,0A26.22,26.22,0,0,0,18.24,14l1.64-3.77a1,1,0,0,1,.68-.57,1,1,0,0,1,.9.27l7.82,7.82a1,1,0,0,1,.27.86,1,1,0,0,1-.57.73L25.22,21a25.75,25.75,0,0,0-4.81,9.23,1,1,0,0,1-.74.73L7.08,33.8v.92H32.15v-1.6a1,1,0,0,1,1-1h5.13a1,1,0,0,1,1,1v5.13A1,1,0,0,1,38.25,39.23Zm-32-3.34H32.93v2.36a.19.19,0,0,0,.19.2h5.13a.19.19,0,0,0,.19-.2V33.12a.18.18,0,0,0-.19-.18H33.12a.19.19,0,0,0-.19.18V35.5H6.29V33.17l13.21-3a.18.18,0,0,0,.14-.14,26.77,26.77,0,0,1,5-9.64l.14-.1,3.86-1.68a.19.19,0,0,0,.1-.14.18.18,0,0,0-.05-.17L20.9,10.5a.21.21,0,0,0-.17-.06.24.24,0,0,0-.13.11l-1.78,4a26,26,0,0,1-9.61,5h0a.23.23,0,0,0-.17.17l-3,13.2H3.74V6.29H6.1a.18.18,0,0,0,.19-.19V1A.19.19,0,0,0,6.1.78H1A.2.2,0,0,0,.78,1V6.1A.19.19,0,0,0,1,6.29H3.34V32.94H1a.19.19,0,0,0-.19.18v5.13a.2.2,0,0,0,.19.2H6.1a.19.19,0,0,0,.19-.2Zm31.77,2.17H33.32V33.32h4.74Zm-4-.79h3.18V34.1H34.1Zm-28.19.79H1.17V33.32H5.91Zm-4-.79H5.13V34.1H2Zm4.91-4.63,6.55-6.55.26.16a2,2,0,0,0,3.1-1.76,2.06,2.06,0,0,0-.6-1.44,2.06,2.06,0,0,0-2.89,0,2,2,0,0,0-.29,2.5l.15.26L6.59,32.36l2.8-12.43.22-.07a27,27,0,0,0,9.15-4.76l.28-.23,5.32,5.33-.22.27a26.56,26.56,0,0,0-4.77,9.14l-.06.23Zm6.69-5.58L9.33,31.28l9.35-2.11a27.59,27.59,0,0,1,4.63-8.92L19,15.92a27.85,27.85,0,0,1-8.94,4.63L7.94,29.9l4.23-4.22a2.83,2.83,0,0,1,.56-3.18,2.84,2.84,0,0,1,4,0,2.82,2.82,0,0,1-3.18,4.55Zm1.17-.9a1.65,1.65,0,0,1-1.17-2.82,1.72,1.72,0,0,1,2.35,0,1.67,1.67,0,0,1,.49,1.16,1.71,1.71,0,0,1-.48,1.18A1.67,1.67,0,0,1,14.72,26.16Zm0-2.52a.81.81,0,0,0-.6.24h0a.88.88,0,0,0,1.24,1.25,1,1,0,0,0,.25-.64.87.87,0,0,0-.25-.6A.85.85,0,0,0,14.72,23.64ZM24.66,20l-5.39-5.39L20.83,11l7.43,7.44ZM20.2,14.39,24.84,19l2.06-.89-5.8-5.81ZM5.91,5.92H1.17V1.18H5.91ZM2,5.13H5.13V2H2Z"/></g></g></svg>