<svg xmlns="http://www.w3.org/2000/svg" viewBox="0 0 35.89 35.81"><defs><style>.cls-1{fill:#293f96;}</style></defs><title>reviews</title><g id="Layer_2" data-name="Layer 2"><g id="Layer_1-2" data-name="Layer 1"><path class="cls-1" d="M35.28,1a6.24,6.24,0,0,0-5.76,0,.51.51,0,0,0-.29.47V29.67s0,0,0,0a.53.53,0,0,0,0,.16s0,0,0,0l2.64,5.29a.53.53,0,0,0,.47.31.54.54,0,0,0,.48-.31l2.64-5.29v0a.34.34,0,0,0,0-.16.06.06,0,0,0,0,0V4.36h0V1.51A.51.51,0,0,0,35.28,1Zm-1.7,30.35a3.78,3.78,0,0,0-2.35,0l-.74-1.49h.06a.56.56,0,0,0,.16-.07l.39-.11.19,0c.13,0,.26-.05.39-.08l.17,0a3.32,3.32,0,0,1,.54,0h0a3.32,3.32,0,0,1,.55,0l.17,0c.13,0,.27,0,.39.08l.19,0,.39.11a.56.56,0,0,0,.16.07h.06Zm-3.29-2.55V4.71a1,1,0,0,0,.18-.06,1.6,1.6,0,0,1,.23-.1L31,4.44l.23-.06.36-.06c.07,0,.14,0,.2,0h0v24.2l-.13,0-.18,0-.51.08-.16.05A5,5,0,0,0,30.29,28.84Zm3.45-.22-.5-.08a.58.58,0,0,0-.19,0l-.12,0V4.29h0c.07,0,.13,0,.2,0l.36.06.23.06.35.11a1.47,1.47,0,0,1,.22.1l.17.06V28.84a4.23,4.23,0,0,0-.58-.17ZM30.29,1.84a5.15,5.15,0,0,1,4.21,0V3.56a5.76,5.76,0,0,0-.59-.18l-.16,0a3.06,3.06,0,0,0-.51-.1,1.13,1.13,0,0,1-.18,0l-.66,0c-.22,0-.43,0-.66,0l-.17,0a3,3,0,0,0-.52.1l-.16,0c-.19.05-.4.11-.6.18Zm2.11,31.9-.69-1.38a2.69,2.69,0,0,1,1.38,0Z"/><path class="cls-1" d="M32.4,35.81a.88.88,0,0,1-.76-.48l-2.55-5.12H29v-.27a.79.79,0,0,1,0-.23V1.51a.83.83,0,0,1,.47-.76,6.57,6.57,0,0,1,6,0h0a.85.85,0,0,1,.46.76V29.76a.48.48,0,0,1,0,.18v.26h-.12l-2.56,5.13A.85.85,0,0,1,32.4,35.81Zm-2.8-6L32.21,35a.23.23,0,0,0,.38,0L35.2,29.8v-.24h0v-28a.21.21,0,0,0-.12-.19,5.92,5.92,0,0,0-5.46,0,.21.21,0,0,0-.12.19v28h.05Zm2.8,4.66-1.15-2.3.37-.11a3,3,0,0,1,1.56,0l.37.11Zm-.21-1.86.21.42.21-.42A1.48,1.48,0,0,0,32.19,32.6Zm1.55-.81-.27-.09a3.4,3.4,0,0,0-2.14,0l-.27.09L30,29.58h.5l.08,0a2.3,2.3,0,0,1,.46-.14l.21-.06.21,0,.17,0h.08l.17,0a3,3,0,0,1,1.16,0s0,0,.08,0l.11,0,.17,0,.22.05.16,0a3.19,3.19,0,0,1,.45.12.42.42,0,0,0,.12.05h.51Zm-2.8-1.7.46.92a4,4,0,0,1,2,0l.45-.92L33.64,30l-.2-.05-.19,0-.17,0h-.19a2.74,2.74,0,0,0-1,0h-.18l-.17,0-.18,0-.16,0Zm3.88-.76-.44-.19a2.74,2.74,0,0,0-.51-.15l-.21-.06a3.5,3.5,0,0,0-.45-.07l-.16,0h-.44V4h.32a.72.72,0,0,1,.21,0h.07l.2,0,.16,0,.09,0,.16,0,.09,0a2.13,2.13,0,0,1,.33.11l.23.09.07,0,.24.06,0,.26Zm-1.57-1.12.07,0a3.42,3.42,0,0,1,.48.08h0l.16,0,.19,0V4.92l-.1,0-.08,0a1.53,1.53,0,0,0-.26-.08,1.47,1.47,0,0,1-.28-.08l-.17,0h0ZM30,29.32V4.46l.25-.06.11,0a.71.71,0,0,1,.19-.08,2.45,2.45,0,0,1,.38-.13l.07,0a.61.61,0,0,0,.18,0l.08,0,.15,0,.21,0h.07a.65.65,0,0,1,.17,0h.32l0,.33V28.81h-.32l-.13,0-.1,0-.53.09L31,29a3.29,3.29,0,0,0-.57.16Zm.64-24.38V28.41l.15,0,.2-.06.57-.09h0V4.66h0l-.16,0-.25.07a1.84,1.84,0,0,0-.28.09l-.09,0-.09,0ZM34.82,4l-.42-.15-.57-.17-.16,0a3.4,3.4,0,0,0-.46-.09h-.1l-.13,0a10.81,10.81,0,0,0-1.14,0h-.07l-.07,0h-.1a3.12,3.12,0,0,0-.46.09l-.16,0-.59.17L30,4V1.63l.19-.08a5.44,5.44,0,0,1,4.47,0l.19.08ZM30.61,2.06V3.12l.21-.05L31,3a3,3,0,0,1,.54-.1h.07l.19,0A8.28,8.28,0,0,1,33,2.9h.12l.18,0a2.64,2.64,0,0,1,.52.1l.16,0,.18.05V2.06A4.79,4.79,0,0,0,30.61,2.06Z"/><path class="cls-1" d="M6.71,1.4H20.08a.54.54,0,0,0,.53-.54.53.53,0,0,0-.53-.54H6.71a.54.54,0,0,0-.53.54A.54.54,0,0,0,6.71,1.4Z"/><path class="cls-1" d="M20.08,1.72H6.71A.86.86,0,0,1,6.71,0H20.08a.86.86,0,0,1,0,1.72ZM6.71.64A.21.21,0,0,0,6.5.86a.23.23,0,0,0,.21.22H20.08a.23.23,0,0,0,.21-.22.21.21,0,0,0-.21-.22Z"/><path class="cls-1" d="M13.69,5.11a.54.54,0,0,0,.54.54H25.94a.54.54,0,0,0,.53-.54.52.52,0,0,0-.53-.52H14.23A.53.53,0,0,0,13.69,5.11Z"/><path class="cls-1" d="M25.94,6H14.23a.86.86,0,1,1,0-1.71H25.94a.85.85,0,0,1,.85.85A.86.86,0,0,1,25.94,6ZM14.23,4.91a.21.21,0,0,0-.22.2.22.22,0,0,0,.22.22H25.94a.21.21,0,0,0,.21-.22.2.2,0,0,0-.21-.2Z"/><path class="cls-1" d="M.86,5.65h9.58A.54.54,0,0,0,11,5.11a.52.52,0,0,0-.53-.52H.86a.53.53,0,0,0-.54.52A.54.54,0,0,0,.86,5.65Z"/><path class="cls-1" d="M10.44,6H.86a.86.86,0,1,1,0-1.71h9.58a.85.85,0,0,1,.85.85A.86.86,0,0,1,10.44,6ZM.86,4.91a.21.21,0,0,0-.22.2.22.22,0,0,0,.22.22h9.58a.22.22,0,0,0,.21-.22.21.21,0,0,0-.21-.2Z"/><path class="cls-1" d="M.86,9.91H22.2a.53.53,0,1,0,0-1.06H.86a.53.53,0,1,0,0,1.06Z"/><path class="cls-1" d="M22.2,10.23H.86a.85.85,0,1,1,0-1.7H22.2a.85.85,0,1,1,0,1.7ZM.86,9.17a.21.21,0,0,0-.22.2.22.22,0,0,0,.22.22H22.2a.21.21,0,1,0,0-.42Z"/><path class="cls-1" d="M25.94,13.1H15.63a.54.54,0,0,0-.53.54.53.53,0,0,0,.53.54H25.94a.54.54,0,0,0,.53-.54A.54.54,0,0,0,25.94,13.1Z"/><path class="cls-1" d="M25.94,14.5H15.63a.86.86,0,0,1,0-1.72H25.94a.86.86,0,0,1,0,1.72ZM15.63,13.42a.22.22,0,0,0-.21.22.21.21,0,0,0,.21.22H25.94a.21.21,0,0,0,.21-.22.22.22,0,0,0-.21-.22Z"/><path class="cls-1" d="M25.94,17.36H15.63a.54.54,0,0,0,0,1.07H25.94a.54.54,0,0,0,0-1.07Z"/><path class="cls-1" d="M25.94,18.75H15.63a.85.85,0,0,1-.85-.85.86.86,0,0,1,.85-.86H25.94a.86.86,0,0,1,.85.86A.85.85,0,0,1,25.94,18.75ZM15.63,17.68a.21.21,0,0,0-.21.22.21.21,0,0,0,.21.21H25.94a.21.21,0,0,0,.21-.21.21.21,0,0,0-.21-.22Z"/><path class="cls-1" d="M15.63,22.69h8.71a.53.53,0,1,0,0-1.06H15.63a.53.53,0,1,0,0,1.06Z"/><path class="cls-1" d="M24.34,23H15.63a.85.85,0,1,1,0-1.7h8.71a.85.85,0,1,1,0,1.7ZM15.63,22a.2.2,0,0,0-.21.2.21.21,0,0,0,.21.22h8.71a.21.21,0,0,0,.21-.22.21.21,0,0,0-.21-.2Z"/><path class="cls-1" d="M25.94,25.88H15.63a.54.54,0,0,0-.53.54.53.53,0,0,0,.53.54H25.94a.54.54,0,0,0,.53-.54A.54.54,0,0,0,25.94,25.88Z"/><path class="cls-1" d="M25.94,27.28H15.63a.86.86,0,0,1,0-1.72H25.94a.86.86,0,0,1,0,1.72ZM15.63,26.2a.22.22,0,0,0-.21.22.21.21,0,0,0,.21.22H25.94a.21.21,0,0,0,.21-.22.22.22,0,0,0-.21-.22Z"/><path class="cls-1" d="M25.94,30.14h-16a.54.54,0,0,0,0,1.08h16a.54.54,0,0,0,0-1.08Z"/><path class="cls-1" d="M25.94,31.54h-16a.86.86,0,0,1,0-1.72h16a.86.86,0,0,1,0,1.72Zm-16-1.08a.22.22,0,0,0,0,.44h16a.22.22,0,0,0,0-.44Z"/><path class="cls-1" d="M.86,31.22h5.3a.54.54,0,0,0,0-1.08H.86a.54.54,0,1,0,0,1.08Z"/><path class="cls-1" d="M6.16,31.54H.86a.86.86,0,1,1,0-1.72h5.3a.86.86,0,0,1,0,1.72ZM.86,30.46a.22.22,0,1,0,0,.44h5.3a.22.22,0,0,0,0-.44Z"/><path class="cls-1" d="M13.29,34.41H.86A.53.53,0,0,0,.32,35a.55.55,0,0,0,.54.54H13.29a.55.55,0,0,0,.54-.54A.53.53,0,0,0,13.29,34.41Z"/><path class="cls-1" d="M13.29,35.81H.86A.87.87,0,0,1,0,35a.86.86,0,0,1,.86-.86H13.29a.86.86,0,0,1,.86.86A.87.87,0,0,1,13.29,35.81ZM.86,34.73A.22.22,0,0,0,.64,35a.22.22,0,0,0,.22.21H13.29a.22.22,0,0,0,.22-.21.22.22,0,0,0-.22-.22Z"/><path class="cls-1" d="M29.33,34.41H17.44a.53.53,0,0,0-.54.54.55.55,0,0,0,.54.54H29.33a.54.54,0,0,0,.54-.54A.53.53,0,0,0,29.33,34.41Z"/><path class="cls-1" d="M29.33,35.81H17.44a.87.87,0,0,1-.86-.86.85.85,0,0,1,.86-.86H29.33a.84.84,0,0,1,.86.86A.86.86,0,0,1,29.33,35.81ZM17.44,34.73a.22.22,0,1,0,0,.43H29.33a.22.22,0,0,0,.22-.21.21.21,0,0,0-.22-.22Z"/><path class="cls-1" d="M.86,27H12a.54.54,0,0,0,.54-.54V13.64A.54.54,0,0,0,12,13.1H.86a.54.54,0,0,0-.54.54V26.42A.54.54,0,0,0,.86,27Zm.53-12.78H11.51v11.7H1.39Z"/><path class="cls-1" d="M12,27.28H.86A.87.87,0,0,1,0,26.42V13.64a.87.87,0,0,1,.86-.86H12a.86.86,0,0,1,.86.86V26.42A.85.85,0,0,1,12,27.28ZM.86,13.42a.23.23,0,0,0-.22.22V26.42a.22.22,0,0,0,.22.22H12a.22.22,0,0,0,.22-.22V13.64a.22.22,0,0,0-.22-.22Zm11,12.78H1.07V13.86H11.83ZM1.71,25.56h9.48V14.5H1.71Z"/></g></g></svg>