<svg id="Layer_1" data-name="Layer 1" xmlns="http://www.w3.org/2000/svg" viewBox="0 0 41.75 41.89"><defs><style>.cls-1{fill:#293f96;}</style></defs><path class="cls-1" d="M39.41,29.35H38l1.27-.53a2.37,2.37,0,0,0,1.28-3.07l-3-7.27a2.32,2.32,0,0,0-1.26-1.26,2.25,2.25,0,0,0-1.8,0l-1.21.49,1.33-1.3a2.35,2.35,0,0,0,0-3.32L29.07,7.52a2.26,2.26,0,0,0-1.65-.7h0a2.32,2.32,0,0,0-1.65.68L24.08,9.17,25,7.05a2.32,2.32,0,0,0,0-1.79A2.28,2.28,0,0,0,23.7,4L16.43,1a2.37,2.37,0,0,0-3.07,1.26l-.81,2V2.36A2.35,2.35,0,0,0,10.21,0H2.34A2.35,2.35,0,0,0,0,2.36V35a2.34,2.34,0,0,0,2.34,2.33h2v2.19a2.34,2.34,0,0,0,2.35,2.33H39.41a2.34,2.34,0,0,0,2.34-2.33V31.68A2.34,2.34,0,0,0,39.41,29.35ZM35,18.38a1.06,1.06,0,0,1,.82,0,1.12,1.12,0,0,1,.58.59l3,7.27a1.06,1.06,0,0,1-.58,1.39l-4.1,1.72H32.28L28.8,21ZM19.46,23.43l-4-3.95L21,14l6.19,6.22Zm-5.68-4L8.53,17.26l3-7.18,8.23,3.41Zm13.85,2,3.28,7.91h-8.4l-2-5Zm-1-13a1.09,1.09,0,0,1,1.52,0L33.72,14a1.09,1.09,0,0,1,0,1.52L30.21,19l-1.74.71-6.55-6.59ZM14.54,2.73a1.07,1.07,0,0,1,1.4-.58l7.27,3a1.12,1.12,0,0,1,.58.59,1.16,1.16,0,0,1,0,.82l-2,4.92-1,1L12,8.91ZM1.26,2.36A1.07,1.07,0,0,1,2.34,1.28h7.87a1.07,1.07,0,0,1,1.07,1.08V7.29L10.57,9h0V9H1.26Zm0,7.94H10L6.82,18.05H1.26ZM2.34,36.11A1.08,1.08,0,0,1,1.26,35V19.33h5l-3.2,7.74a.63.63,0,0,0,.34.83.64.64,0,0,0,.83-.34L8,18.42l4.76,2L6,27.16a.65.65,0,0,0,0,.91.65.65,0,0,0,.9,0l7.72-7.69L18.19,24,9.81,27.43a.65.65,0,0,0-.34.84.63.63,0,0,0,.83.34l9-3.73,1.84,4.47H6.73a2.34,2.34,0,0,0-2.35,2.33v2.19L3.48,33a1,1,0,0,1-.31-.79.63.63,0,0,0-.62-.64.61.61,0,0,0-.65.6,2.41,2.41,0,0,0,.68,1.74l1.8,1.81v.43Zm11.06,4.5H6.73a1.06,1.06,0,0,1-1.08-1V31.68a1.08,1.08,0,0,1,1.08-1.07H13.4Zm9,0H14.67v-10h7.76Zm9,0H23.7v-10h7.76Zm9-1a1.06,1.06,0,0,1-1.07,1H32.72v-10h6.69a1.08,1.08,0,0,1,1.07,1.07Z"/><path class="cls-1" d="M9.66,37.94a2.33,2.33,0,1,0-2.33-2.32A2.32,2.32,0,0,0,9.66,37.94Zm0-3.38a1.06,1.06,0,1,1,0,2.11,1.06,1.06,0,1,1,0-2.11Z"/></svg>