<svg id="Layer_1" data-name="Layer 1" xmlns="http://www.w3.org/2000/svg" viewBox="0 0 48 48"><defs><style>.cls-1{fill:#293f96;}</style></defs><path class="cls-1" d="M43.63,4.65H4.37A2.89,2.89,0,0,0,1.49,7.54V40.46a2.89,2.89,0,0,0,2.88,2.89H43.63a2.89,2.89,0,0,0,2.88-2.89V7.54A2.89,2.89,0,0,0,43.63,4.65Zm1.52,35.81A1.52,1.52,0,0,1,43.63,42H4.37a1.52,1.52,0,0,1-1.52-1.52V7.54A1.52,1.52,0,0,1,4.37,6H43.63a1.52,1.52,0,0,1,1.52,1.52Z"/><path class="cls-1" d="M5.85,11.78h36.3a.68.68,0,0,0,0-1.36H5.85a.68.68,0,0,0,0,1.36Z"/><path class="cls-1" d="M6.59,9.09a.74.74,0,1,0-.74-.73A.74.74,0,0,0,6.59,9.09Z"/><path class="cls-1" d="M9,9.09a.74.74,0,1,0-.74-.73A.73.73,0,0,0,9,9.09Z"/><path class="cls-1" d="M11.36,9.09a.74.74,0,1,0-.73-.73A.74.74,0,0,0,11.36,9.09Z"/><path class="cls-1" d="M42.15,32.28a2,2,0,0,0-1.85,1.29H5.85a.67.67,0,0,0-.68.68v4.82a.67.67,0,0,0,.68.68h36.3a.67.67,0,0,0,.68-.68V37.76a.68.68,0,0,0-1.36,0v.63H6.53V34.93H40.3a2,2,0,1,0,1.85-2.65Zm0,2.58a.61.61,0,0,1,0-1.22.61.61,0,1,1,0,1.22Z"/><path class="cls-1" d="M15.62,22.72A8.38,8.38,0,1,0,24,14.34,8.39,8.39,0,0,0,15.62,22.72Zm15.4,0a7,7,0,1,1-7-7A7,7,0,0,1,31,22.72Z"/><path class="cls-1" d="M22.12,18.83a.68.68,0,0,0-.37.61V26a.69.69,0,0,0,.37.61.7.7,0,0,0,.31.07.66.66,0,0,0,.4-.13l4.56-3.28a.7.7,0,0,0,.29-.56.68.68,0,0,0-.29-.55l-4.56-3.29A.67.67,0,0,0,22.12,18.83Zm1,1.94,2.71,1.95-2.71,2Z"/><path class="cls-1" d="M8.4,36a.68.68,0,0,0,0,1.36H22.61a.68.68,0,1,0,0-1.36Z"/><path class="cls-1" d="M25.57,36a.68.68,0,1,0,0,1.36h.56a.68.68,0,1,0,0-1.36Z"/><path class="cls-1" d="M29.55,36a.68.68,0,0,0,0,1.36h6.53a.68.68,0,0,0,0-1.36Z"/></svg>