<svg id="Layer_1" data-name="Layer 1" xmlns="http://www.w3.org/2000/svg" viewBox="0 0 48 48"><defs><style>.cls-1{fill:#293f96;}</style></defs><path class="cls-1" d="M33.34,4.49a.58.58,0,0,0-.58.57v9.39H15.19V5.06a.58.58,0,0,0-1.16,0V42.55a.58.58,0,0,0,1.16,0V33.18H32.76v9.37a.57.57,0,0,0,.58.57.57.57,0,0,0,.59-.57V5.06A.59.59,0,0,0,33.34,4.49ZM15.19,32V15.61H32.76V32Z"/><path class="cls-1" d="M11.1,4.49H5.24a.58.58,0,0,0-.58.57V42.55a.57.57,0,0,0,.58.57H11.1a.57.57,0,0,0,.58-.57V5.06A.58.58,0,0,0,11.1,4.49ZM10.51,17H5.83V11.91h4.68Zm0,6.23H5.83V18.15h4.68Zm0,6.24H5.83V24.39h4.68ZM5.83,30.64h4.68v5.08H5.83Zm0-25h4.68v5.07H5.83ZM10.51,42H5.83V36.88h4.68Z"/><path class="cls-1" d="M42.71,4.49H36.86a.58.58,0,0,0-.59.57V42.55a.57.57,0,0,0,.59.57h5.85a.57.57,0,0,0,.58-.57V5.06A.58.58,0,0,0,42.71,4.49ZM42.13,17H37.44V11.91h4.69Zm0,6.23H37.44V18.15h4.69Zm0,6.24H37.44V24.39h4.69Zm-4.69,1.18h4.69v5.08H37.44Zm0-25h4.69v5.07H37.44ZM42.13,42H37.44V36.88h4.69Z"/><path class="cls-1" d="M22.16,19a.58.58,0,0,0-.62-.06.59.59,0,0,0-.32.53v8.74a.57.57,0,0,0,.32.52.54.54,0,0,0,.62-.06L28,24.28a.6.6,0,0,0,.23-.47.56.56,0,0,0-.23-.46Zm.23,8V20.6l4.3,3.21Z"/></svg>