<svg xmlns="http://www.w3.org/2000/svg" viewBox="0 0 45.56 46.15"><defs><style>.cls-1{fill:#293f96;}</style></defs><title>Asset 1</title><g id="Layer_2" data-name="Layer 2"><g id="Layer_1-2" data-name="Layer 1"><path class="cls-1" d="M44.92,46.15H.63A.64.64,0,0,1,0,45.51V23.29a.64.64,0,0,1,.63-.64.64.64,0,0,1,.63.64V44.88h43V23.29a.64.64,0,0,1,.63-.64.64.64,0,0,1,.64.64V45.51A.64.64,0,0,1,44.92,46.15Z"/><path class="cls-1" d="M22.78,35.4a.63.63,0,0,1-.63-.63V.63a.63.63,0,1,1,1.26,0V34.77A.63.63,0,0,1,22.78,35.4Z"/><path class="cls-1" d="M22.78,36.36h0a.62.62,0,0,1-.52-.26l-4.68-6.58a.63.63,0,1,1,1-.73l4.18,5.85L27,28.79a.63.63,0,0,1,1,.73L23.29,36.1A.62.62,0,0,1,22.78,36.36Z"/></g></g></svg>