<svg xmlns="http://www.w3.org/2000/svg" viewBox="0 0 37.58 41.55"><defs><style>.cls-1{fill:#293f96;}</style></defs><title>likes</title><g id="Layer_2" data-name="Layer 2"><g id="Layer_1-2" data-name="Layer 1"><path class="cls-1" d="M9.41,38.36h2.5a.65.65,0,1,0,0-1.3H9.41a.65.65,0,0,0,0,1.3Z"/><path class="cls-1" d="M11.91,38.66H9.41a1,1,0,1,1,0-1.9h2.5a1,1,0,1,1,0,1.9Zm-2.5-1.3a.35.35,0,0,0-.35.35.35.35,0,0,0,.35.34h2.5a.34.34,0,0,0,.34-.34.35.35,0,0,0-.34-.35Z"/><path class="cls-1" d="M34.14.3H13.07A3.15,3.15,0,0,0,9.93,3.4H4A3.66,3.66,0,0,0,.38,7.05V34.3a.6.6,0,0,0,0,.6v2.7A3.66,3.66,0,0,0,4,41.25H17.27a3.65,3.65,0,0,0,3.65-3.65V27.22a.65.65,0,0,0-1.29,0V34h-18V8.67H9.92V20a3.13,3.13,0,0,0,3.15,3.1h.84l-1.62,4.35a.65.65,0,0,0,.17.7.66.66,0,0,0,.72.11l10.89-5.16H34.14A3.12,3.12,0,0,0,37.28,20V3.46A3.16,3.16,0,0,0,34.14.3Zm-14.51,35V37.6A2.36,2.36,0,0,1,17.27,40H4A2.36,2.36,0,0,1,1.67,37.6V35.25ZM1.67,7.38V7.05A2.36,2.36,0,0,1,4,4.7H9.92V7.38ZM36,20a1.82,1.82,0,0,1-1.84,1.81H23.92a.67.67,0,0,0-.28.06l-9.58,4.54,1.39-3.73a.64.64,0,0,0-.61-.87H13.07A1.83,1.83,0,0,1,11.22,20V3.46A1.88,1.88,0,0,1,13.07,1.6H34.14A1.87,1.87,0,0,1,36,3.46Z"/><path class="cls-1" d="M17.27,41.55H4A4,4,0,0,1,.08,37.6V35A1,1,0,0,1,0,34.6a1,1,0,0,1,.08-.37V7.05A4,4,0,0,1,4,3.1H9.64A3.47,3.47,0,0,1,13.07,0H34.14a3.45,3.45,0,0,1,3.44,3.46V20a3.43,3.43,0,0,1-3.44,3.41h-10L13.31,28.51a1,1,0,0,1-1.05-.16.93.93,0,0,1-.25-1l1.47-3.93h-.41A3.44,3.44,0,0,1,9.62,20V9H2V33.65H19.33V27.22a1,1,0,0,1,1.9,0V37.6A4,4,0,0,1,17.27,41.55ZM4,3.71A3.35,3.35,0,0,0,.68,7.05V34.38l0,.06a.34.34,0,0,0,0,.16.32.32,0,0,0,0,.16l0,.07V37.6A3.36,3.36,0,0,0,4,41H17.27a3.35,3.35,0,0,0,3.35-3.35V27.22a.34.34,0,0,0-.34-.34.35.35,0,0,0-.35.34v7H1.37V8.37h8.86V20a2.82,2.82,0,0,0,2.84,2.8h1.28l-1.77,4.75a.34.34,0,0,0,.09.38.38.38,0,0,0,.38.06l11-5.19H34.14A2.81,2.81,0,0,0,37,20V3.46A2.84,2.84,0,0,0,34.14.61H13.07a2.86,2.86,0,0,0-2.84,2.8v.3ZM17.27,40.26H4A2.66,2.66,0,0,1,1.37,37.6V35H19.93V37.6A2.66,2.66,0,0,1,17.27,40.26ZM2,35.55V37.6a2.05,2.05,0,0,0,2.05,2H17.27a2.06,2.06,0,0,0,2.06-2V35.55ZM13.52,27l1.65-4.42a.36.36,0,0,0,0-.32.36.36,0,0,0-.29-.15H13.07A2.13,2.13,0,0,1,10.92,20V3.46a2.19,2.19,0,0,1,2.15-2.17H34.14a2.2,2.2,0,0,1,2.15,2.17V20a2.13,2.13,0,0,1-2.15,2.11H23.92a.4.4,0,0,0-.15,0ZM13.07,1.9a1.57,1.57,0,0,0-1.55,1.56V20a1.53,1.53,0,0,0,1.55,1.51h1.77a.93.93,0,0,1,.78.4,1,1,0,0,1,.11.88l-1.12,3,8.9-4.21a1,1,0,0,1,.41-.09H34.14A1.53,1.53,0,0,0,35.68,20V3.46A1.57,1.57,0,0,0,34.14,1.9ZM10.23,7.68H1.37V7.05A2.67,2.67,0,0,1,4,4.39h6.2ZM2,7.08H9.62V5H4A2.05,2.05,0,0,0,2,7.05Z"/><path class="cls-1" d="M28.21,9.4H26.45a4.86,4.86,0,0,0,.8-1.91,13.57,13.57,0,0,0,.17-1.59,1.81,1.81,0,0,0-.5-1.33A1.77,1.77,0,0,0,25.62,4,1.8,1.8,0,0,0,23.84,5.5a3.92,3.92,0,0,1-1,2.38c-.26.18-.46.3-.65.41a1.56,1.56,0,0,0-.91,1,2.55,2.55,0,0,1-.84,1.52,1.08,1.08,0,0,0-.8-.37h0l-1.6,0a1.08,1.08,0,0,0-.79.37,1.1,1.1,0,0,0-.28.78L17,18.2a1.12,1.12,0,0,0,1.1,1.12h0l1.59,0a1.08,1.08,0,0,0,1-.76,6.06,6.06,0,0,1,1.53,0,8,8,0,0,0,1.4.12h4.54a2.07,2.07,0,0,0,2.06-2.06V11.45a2.07,2.07,0,0,0-2.06-2ZM18.3,18l-.07-6.24,1.2,0L19.51,18ZM29,16.62a.76.76,0,0,1-.76.76H23.67a6.56,6.56,0,0,1-1.18-.1,7.57,7.57,0,0,0-1.7-.05l-.06-5.08a3.43,3.43,0,0,0,1.8-2.56l.3-.18c.19-.11.44-.26.75-.47a5,5,0,0,0,1.54-3.22.51.51,0,0,1,.5-.42.52.52,0,0,1,.37.16.57.57,0,0,1,.14.38c0,.49-.08,1-.15,1.44a4.57,4.57,0,0,1-1.36,2.27.68.68,0,0,0-.21.61v2.18a2.39,2.39,0,0,1-1.47,2.21l-.4.17A.64.64,0,0,0,22.78,16a.53.53,0,0,0,.25-.05l.4-.16a3.68,3.68,0,0,0,2.27-3.41V10.69h2.51a.75.75,0,0,1,.76.76Z"/><path class="cls-1" d="M18.13,19.62a1.43,1.43,0,0,1-1.42-1.42l-.08-6.56a1.52,1.52,0,0,1,.37-1,1.37,1.37,0,0,1,1-.46l1.6,0a1.37,1.37,0,0,1,.83.27A2.72,2.72,0,0,0,21,9.25,1.86,1.86,0,0,1,22,8a6.85,6.85,0,0,0,.62-.4,3.69,3.69,0,0,0,.9-2.19A2.11,2.11,0,0,1,25.62,3.7a2.12,2.12,0,0,1,2.1,2.22,14.09,14.09,0,0,1-.17,1.62A4.54,4.54,0,0,1,27,9.09h1.22a2.36,2.36,0,0,1,2.36,2.36v5.17A2.36,2.36,0,0,1,28.21,19H23.67a8.72,8.72,0,0,1-1.46-.12,5.38,5.38,0,0,0-1.26,0,1.43,1.43,0,0,1-1.22.78Zm1.5-8.85-1.61,0a.79.79,0,0,0-.57.27.84.84,0,0,0-.21.58l.08,6.56a.81.81,0,0,0,.79.82l1.61,0a.8.8,0,0,0,.73-.56l.07-.19h.2a6.72,6.72,0,0,1,1.6,0,8.48,8.48,0,0,0,1.35.11h4.54A1.75,1.75,0,0,0,30,16.62V11.45A1.74,1.74,0,0,0,28.21,9.7H25.88l.32-.48A4.26,4.26,0,0,0,27,7.44a15.31,15.31,0,0,0,.17-1.55,1.52,1.52,0,0,0-1.5-1.58,1.5,1.5,0,0,0-1.48,1.24A4.47,4.47,0,0,1,23,8.13c-.27.19-.48.31-.67.42-.37.21-.68.39-.77.83a2.87,2.87,0,0,1-1,1.7l-.22.16L20.21,11A.78.78,0,0,0,19.63,10.77ZM18,18.33l-.09-6.85,1.81,0,.08,6.85Zm.53-6.25.06,5.63h.6l-.07-5.63Zm9.67,5.6H23.67a7,7,0,0,1-1.23-.1,7,7,0,0,0-1.63,0l-.32,0L20.43,12l.18-.08a3.11,3.11,0,0,0,1.63-2.34l0-.1.07-.06a2.76,2.76,0,0,1,.35-.22c.18-.11.43-.25.72-.46a4.61,4.61,0,0,0,1.42-3,.81.81,0,0,1,.8-.67.8.8,0,0,1,.81.85,13.68,13.68,0,0,1-.16,1.48,4.76,4.76,0,0,1-1.45,2.45.34.34,0,0,0-.11.33v2.23a2.68,2.68,0,0,1-1.66,2.49l-.4.17a.34.34,0,0,0-.18.45.35.35,0,0,0,.45.18l.4-.16a3.39,3.39,0,0,0,2.08-3.13V10.39h2.81a1.08,1.08,0,0,1,1.07,1.06v5.17A1.06,1.06,0,0,1,28.21,17.68Zm-6.75-.78a6.54,6.54,0,0,1,1.08.08,5.94,5.94,0,0,0,1.13.1h4.54a.47.47,0,0,0,.46-.46V11.45a.48.48,0,0,0-.46-.46H26v1.35A4,4,0,0,1,23.55,16l-.4.16a1,1,0,0,1-1.24-.51.93.93,0,0,1,0-.73.91.91,0,0,1,.51-.51l.4-.17a2.08,2.08,0,0,0,1.29-1.93V10.16a.92.92,0,0,1,.31-.84,4.24,4.24,0,0,0,1.26-2.08,13.13,13.13,0,0,0,.14-1.42.17.17,0,0,0-.05-.15.21.21,0,0,0-.35.11,5.09,5.09,0,0,1-1.67,3.4,7.47,7.47,0,0,1-.76.49,1.18,1.18,0,0,0-.19.11A3.72,3.72,0,0,1,21,12.34l.05,4.57Z"/></g></g></svg>